<svg width="15" height="15" viewBox="0 0 15 15" fill="none" xmlns="http://www.w3.org/2000/svg">
<path d="M11.7824 0.229071C11.3331 0.0703886 10.8606 0.000126056 10.3874 0.000126056C9.34491 -0.00776861 8.33317 0.355386 7.49993 1.02564C7.43243 0.97117 7.34994 0.923013 7.27494 0.876434C7.19994 0.828277 7.06494 0.710646 6.95244 0.647489L6.66744 0.51328C6.51744 0.426438 6.36069 0.363281 6.19495 0.307229C6.17995 0.292229 6.15745 0.27565 6.12745 0.26065H6.0832C5.63995 0.101967 5.18246 0.0151259 4.70996 0.000126056H4.62746C4.41747 0.000126056 4.20822 0.0151259 3.99747 0.0474941H3.90747C3.68247 0.0782833 3.45823 0.133546 3.24073 0.212493C0.442508 1.17643 -0.554982 4.37377 0.292509 7.16849C0.772504 8.59663 1.54575 9.89215 2.55074 10.9571C4.01247 12.4413 5.6107 13.7519 7.32744 14.8729L7.52243 15L7.70993 14.8808C9.42066 13.7519 11.0099 12.4413 12.4581 10.965C13.4699 9.90004 14.2424 8.59663 14.7149 7.16849C15.5481 4.37377 14.5506 1.17643 11.7824 0.229071Z" fill="#EF2E2E"/>
</svg>
