<svg width="17" height="17" viewBox="0 0 17 17" fill="none" xmlns="http://www.w3.org/2000/svg">
<path d="M11.3874 1.00013L11.3836 1.50013H11.3874V1.00013ZM8.49993 2.02564L8.18592 2.41474L8.49942 2.66774L8.81332 2.41524L8.49993 2.02564ZM8.27494 1.87643L8.00475 2.29721L8.01114 2.30119L8.27494 1.87643ZM7.95244 1.64749L8.19721 1.2115L8.18162 1.20275L8.16546 1.19514L7.95244 1.64749ZM7.66744 1.51328L7.41692 1.94599L7.43526 1.95661L7.45442 1.96563L7.66744 1.51328ZM7.19495 1.30723L6.84139 1.66078L6.92404 1.74343L7.03477 1.78088L7.19495 1.30723ZM7.12745 1.26065L7.35105 0.813437L7.24548 0.76065H7.12745V1.26065ZM7.0832 1.26065L6.91467 1.73139L6.99639 1.76065H7.0832V1.26065ZM5.70996 1.00013L5.72583 0.500378L5.7179 0.500126H5.70996V1.00013ZM4.99747 1.04749V1.54749H5.03564L5.07337 1.5417L4.99747 1.04749ZM4.90747 1.04749V0.547494H4.87342L4.83968 0.552111L4.90747 1.04749ZM4.24073 1.21249L4.4036 1.68529L4.41133 1.68249L4.24073 1.21249ZM1.29251 8.16849L0.814026 8.31359L0.816188 8.32072L0.818562 8.32778L1.29251 8.16849ZM3.55074 11.9571L3.187 12.3004L3.1945 12.308L3.55074 11.9571ZM8.32744 15.8729L8.05406 16.2915L8.0544 16.2918L8.32744 15.8729ZM8.52243 16L8.2494 16.4189L8.51906 16.5946L8.7907 16.4219L8.52243 16ZM8.70993 15.8808L8.97824 16.3028L8.98533 16.2981L8.70993 15.8808ZM13.4581 11.965L13.8151 12.3152L13.8206 12.3094L13.4581 11.965ZM15.7149 8.16849L16.1896 8.32554L16.1919 8.31848L16.194 8.31135L15.7149 8.16849ZM12.9489 0.757618C12.4395 0.577664 11.9098 0.500126 11.3874 0.500126V1.50013C11.8115 1.50013 12.2268 1.56311 12.6159 1.70053L12.9489 0.757618ZM11.3912 0.50014C10.2284 0.491334 9.1056 0.896757 8.18654 1.63605L8.81332 2.41524C9.56075 1.81402 10.4615 1.49313 11.3836 1.50011L11.3912 0.50014ZM8.81394 1.63655C8.71537 1.55699 8.59461 1.48639 8.53873 1.45168L8.01114 2.30119C8.10526 2.35963 8.1495 2.38535 8.18592 2.41474L8.81394 1.63655ZM8.54509 1.4557C8.54531 1.45584 8.54245 1.45399 8.53546 1.44898C8.52872 1.44415 8.52025 1.4379 8.5094 1.42974C8.48228 1.40932 8.46652 1.39695 8.42967 1.36904C8.3728 1.32595 8.28656 1.26166 8.19721 1.2115L7.70767 2.08348C7.73082 2.09648 7.76832 2.12258 7.82583 2.16614C7.84616 2.18154 7.88525 2.21156 7.90805 2.22872C7.93411 2.24833 7.96924 2.27435 8.00478 2.29717L8.54509 1.4557ZM8.16546 1.19514L7.88046 1.06093L7.45442 1.96563L7.73942 2.09984L8.16546 1.19514ZM7.91796 1.08057C7.7283 0.970764 7.53739 0.895219 7.35512 0.83358L7.03477 1.78088C7.184 1.83134 7.30659 1.88211 7.41692 1.94599L7.91796 1.08057ZM7.5485 0.953676C7.48971 0.894882 7.4212 0.84851 7.35105 0.813437L6.90384 1.70786C6.89369 1.70279 6.87019 1.68958 6.84139 1.66078L7.5485 0.953676ZM7.12745 0.76065H7.0832V1.76065H7.12745V0.76065ZM7.25172 0.789908C6.75926 0.613603 6.25024 0.517026 5.72583 0.500378L5.6941 1.49987C6.11467 1.51323 6.52065 1.59033 6.91467 1.73139L7.25172 0.789908ZM5.70996 0.500126H5.62746V1.50013H5.70996V0.500126ZM5.62746 0.500126C5.39342 0.500126 5.15875 0.516861 4.92157 0.553289L5.07337 1.5417C5.25769 1.51339 5.44151 1.50013 5.62746 1.50013V0.500126ZM4.99747 0.547494H4.90747V1.54749H4.99747V0.547494ZM4.83968 0.552111C4.57944 0.587723 4.32074 0.651531 4.07013 0.742497L4.41133 1.68249C4.59571 1.61556 4.78551 1.56884 4.97526 1.54288L4.83968 0.552111ZM4.07788 0.739756C0.941309 1.82025 -0.0827938 5.3562 0.814026 8.31359L1.77099 8.02339C0.97283 5.39134 1.94371 2.53261 4.40358 1.68523L4.07788 0.739756ZM0.818562 8.32778C1.32101 9.82273 2.13123 11.1814 3.18709 12.3003L3.91438 11.614C2.96027 10.6029 2.224 9.37053 1.76646 8.00919L0.818562 8.32778ZM3.1945 12.308C4.68089 13.8172 6.30683 15.1506 8.05406 16.2915L8.60081 15.4543C6.91458 14.3531 5.34404 13.0654 3.90697 11.6063L3.1945 12.308ZM8.0544 16.2918L8.2494 16.4189L8.79547 15.5811L8.60047 15.454L8.0544 16.2918ZM8.7907 16.4219L8.9782 16.3027L8.44166 15.4589L8.25417 15.5781L8.7907 16.4219ZM8.98533 16.2981C10.7258 15.1496 12.3423 13.8165 13.8151 12.3152L13.1012 11.6149C11.6775 13.0662 10.1155 14.3541 8.43453 15.4635L8.98533 16.2981ZM13.8206 12.3094C14.8848 11.1892 15.6947 9.82123 16.1896 8.32554L15.2402 8.01144C14.79 9.37203 14.0549 10.6109 13.0956 11.6207L13.8206 12.3094ZM16.194 8.31135C17.0745 5.35817 16.0537 1.82013 12.9443 0.756007L12.6205 1.70214C15.0475 2.53273 16.0217 5.38938 15.2357 8.02563L16.194 8.31135Z" fill="black"/>
</svg>
