<?xml version="1.0" encoding="UTF-8"?>
<svg version="1.1" viewBox="0 0 2048 2048" width="512" height="512" xmlns="http://www.w3.org/2000/svg">
<path transform="translate(296,128)" d="m0 0h1456l14 2 15 5 11 6 11 8 10 9 9 12 8 15 5 16 1 6 1 16v1042h53l12 3 8 6 6 7 3 7 1 7v104l-1 16-4 19-6 16-8 15-9 13-14 15-16 12-16 9-16 6-18 4-22 2h-61l-10-2-8-4-7-7-5-9-1-4v-13l5-12 8-8 11-5 73-1 13-2 13-5 13-9 7-7 7-11 4-9 3-16v-72l-107-1-11-4-9-8-6-12-1-11 3-10 6-9 7-6 7-3 5-1h24l-1-6v-1044l-3-9-4-5-11-6-9-2h-1444l-10 3-9 6-5 7-1 5-1 1052 284-1h147l10 2 9 6 7 8 3 7 1 6 1 21 3 10 6 8 10 6 8 2 38 1 11 4 10 9 4 8 2 7-1 13-6 11-9 8-13 4h-40l-17-3-14-5-15-8-11-9-10-10-10-15-6-14-3-11v-2h-482l1 76 3 14 7 14 7 8v2l4 2 8 6 12 6 10 3 9 1 575 1 9 4 7 5 7 11 2 8v7l-3 10-7 10-9 6-7 2-10 1h-553l-23-1-21-4-16-6-17-9-12-9-10-9-10-11-10-15-8-16-5-15-3-15-1-8v-117l4-10 6-8 10-6 7-2h55l1-1053 3-16 4-12 9-16 11-13 10-9 13-8 11-5 15-4z" fill="#939797"/>
<path transform="translate(1249,956)" d="m0 0h52l29 3 23 4 25 6 26 8 25 10 29 14 19 11 21 14 18 14 11 9 13 12 22 22 9 11 12 15 12 17 12 19 9 16 11 23 11 28 8 26 6 25 4 23 3 29v48l-2 20-3 22-5 23-6 23-9 26-10 23-8 16-8 15-1 4 226 226 10 14 7 15 4 13 2 13v12l-2 16-5 16-9 17-8 10-11 11-15 10-14 6-15 4-5 1h-25l-14-3-14-5-15-9-13-11-220-220-5 1-16 9-25 12-26 10-27 8-28 6-26 4-23 2h-42l-22-2-26-4-19-4-26-7-28-10-25-11-19-10-23-14-17-12-13-10-13-11-12-11-19-19-7-8-13-16-13-18-11-17-14-25-9-19-10-25-7-21-8-32-5-30-2-20-1-17v-15l1-23 3-28 5-27 6-24 10-30 9-21 12-25 13-22 8-12 10-14 11-14 13-15 16-17 8-7 12-11 10-8 16-12 23-15 22-12 27-13 26-10 28-8 28-6 28-4zm15 63-26 2-25 4-25 6-27 9-21 9-20 10-18 11-16 11-16 13-8 7-12 11-10 10-7 8-9 11-14 19-11 18-10 18-10 22-9 25-7 25-4 20-3 26-1 17v18l2 25 4 27 6 25 10 30 11 25 9 17 11 18 13 18 11 13 9 11 15 15 8 7 13 11 18 13 19 12 23 12 20 9 25 9 28 7 24 4 20 2h44l26-3 25-5 22-6 20-7 23-10 23-12 20-13 19-14 15-13 8-8 6-5 7-8 11-12 12-16 14-21 11-19 11-24 7-18 8-27 6-30 3-27v-42l-2-22-5-27-6-23-7-21-9-21-8-16-10-18-10-15-12-16-12-14-7-8-15-15-11-9-12-10-17-12-15-9-22-12-23-10-33-11-27-6-30-4-19-1zm303 569-12 13-7 8-7 7-8 7-9 8 1 4 210 210 8 6 9 4h15l10-4 9-8 4-8 2-7v-9l-4-10-4-6-9-10-205-205z" fill="#939797"/>
<path transform="translate(366,640)" d="m0 0h1045l9 2 8 5 5 5 5 8 2 7v10l-3 9-6 8-7 6-9 3-12 1h-1033l-11-2-9-6-7-8-4-11v-10l4-11 5-7 9-6z" fill="#939797"/>
<path transform="translate(366,816)" d="m0 0h789l9 2 8 5 5 5 5 8 2 8v9l-3 9-6 8-7 6-9 3-11 1h-778l-11-2-9-6-7-8-4-11v-10l4-11 5-7 9-6z" fill="#939797"/>
<path transform="translate(366,464)" d="m0 0h661l9 2 8 5 5 5 5 8 2 7v10l-3 9-6 8-7 6-9 3-12 1h-649l-11-2-9-6-7-8-4-11v-10l4-11 5-7 9-6z" fill="#939797"/>
<path transform="translate(366,288)" d="m0 0h661l9 2 11 7 6 9 3 10v9l-3 9-6 8-7 6-9 3-12 1h-649l-11-2-9-6-7-8-4-11v-10l4-11 7-8 9-6z" fill="#939797"/>
<path transform="translate(366,992)" d="m0 0h551l9 2 8 5 8 9 4 11v9l-3 10-7 9-8 6-6 2-11 1h-541l-11-2-9-6-7-8-4-11v-10l4-11 5-7 11-7z" fill="#939797"/>
<path transform="translate(1267,1150)" d="m0 0h16l9 4 8 7 5 8 2 6v192l-4 11-8 9-7 4-8 2h-11l-10-4-8-7-5-8-3-10v-186l2-8 6-10 7-6z" fill="#939797"/>
<path transform="translate(1272,1449)" d="m0 0 13 1 10 4 8 6 6 7 5 10 1 4v17l-5 12-9 10-8 5-8 3-5 1h-10l-11-3-8-5-5-4-6-9-4-10v-17l4-11 6-8 8-7 8-4z" fill="#939797"/>
</svg>
