<svg width="42" height="43" viewBox="0 0 42 43" fill="none" xmlns="http://www.w3.org/2000/svg">
<path d="M32.4197 1.61086C31.2217 1.1877 29.9617 1.00034 28.6997 1.00034C25.9198 0.979284 23.2218 1.9477 20.9998 3.73505C20.8198 3.58979 20.5998 3.46137 20.3998 3.33716C20.1998 3.20874 19.8398 2.89506 19.5398 2.72664L18.7798 2.36875C18.3798 2.13717 17.9619 1.96875 17.5199 1.81928C17.4799 1.77928 17.4199 1.73507 17.3399 1.69507H17.2219C16.0399 1.27191 14.8199 1.04034 13.5599 1.00034H13.3399C12.7799 1.00034 12.2219 1.04034 11.6599 1.12665H11.4199C10.8199 1.20876 10.2219 1.35612 9.64194 1.56665C2.18002 4.13715 -0.479951 12.6634 1.78002 20.116C3.06001 23.9244 5.12199 27.3791 7.80196 30.219C11.6999 34.1769 15.9619 37.6716 20.5398 40.6611L21.0598 41L21.5598 40.6821C26.1218 37.6716 30.3597 34.1769 34.2217 30.2401C36.9197 27.4001 38.9796 23.9244 40.2396 20.116C42.4616 12.6634 39.8016 4.13715 32.4197 1.61086Z" fill="#D9D9D9"/>
<path d="M28.6997 1.00034L28.6922 2.00034H28.6997V1.00034ZM20.9998 3.73505L20.3718 4.51325L20.9988 5.01925L21.6266 4.51424L20.9998 3.73505ZM20.3998 3.33716L19.8595 4.17862L19.8658 4.18269L19.8722 4.18666L20.3998 3.33716ZM19.5398 2.72664L20.0294 1.85465L19.9982 1.83716L19.9659 1.82193L19.5398 2.72664ZM18.7798 2.36875L18.2788 3.23417L18.3155 3.2554L18.3538 3.27345L18.7798 2.36875ZM17.5199 1.81928L16.8127 2.52638L16.9781 2.69168L17.1995 2.76657L17.5199 1.81928ZM17.3399 1.69507L17.7871 0.80064L17.5759 0.695067H17.3399V1.69507ZM17.2219 1.69507L16.8848 2.63655L17.0483 2.69507H17.2219V1.69507ZM13.5599 1.00034L13.5916 0.000839651L13.5758 0.00033617H13.5599V1.00034ZM11.6599 1.12665V2.12665H11.7363L11.8117 2.11506L11.6599 1.12665ZM11.4199 1.12665V0.126651H11.3518L11.2843 0.135884L11.4199 1.12665ZM9.64194 1.56665L9.96764 2.51212L9.97541 2.50944L9.98314 2.50664L9.64194 1.56665ZM1.78002 20.116L0.823058 20.4062L0.827383 20.4204L0.83213 20.4345L1.78002 20.116ZM7.80196 30.219L7.07466 30.9054L7.08199 30.9131L7.08948 30.9207L7.80196 30.219ZM20.5398 40.6611L19.9931 41.4983L19.9938 41.4988L20.5398 40.6611ZM21.0598 41L20.5138 41.8377L21.0531 42.1893L21.5964 41.8439L21.0598 41ZM21.5598 40.6821L22.0963 41.526L22.1035 41.5214L22.1106 41.5167L21.5598 40.6821ZM34.2217 30.2401L34.9355 30.9404L34.9412 30.9347L34.9467 30.9288L34.2217 30.2401ZM40.2396 20.116L41.189 20.4301L41.1937 20.4159L41.1979 20.4017L40.2396 20.116ZM32.7528 0.66795C31.4343 0.202254 30.06 0.00033617 28.6997 0.00033617V2.00034C29.8635 2.00034 31.0091 2.17315 32.0866 2.55376L32.7528 0.66795ZM28.7073 0.00036484C25.6867 -0.0225104 22.7666 1.03044 20.373 2.95586L21.6266 4.51424C23.6769 2.86495 26.1529 1.98108 28.6922 2.00031L28.7073 0.00036484ZM21.6278 2.95685C21.3857 2.76143 21.0892 2.58813 20.9274 2.48766L19.8722 4.18666C20.1105 4.33461 20.254 4.41815 20.3718 4.51325L21.6278 2.95685ZM20.9401 2.49569C20.8835 2.45933 20.7984 2.39162 20.6112 2.2498C20.4593 2.13475 20.2456 1.97603 20.0294 1.85465L19.0503 3.59862C19.1341 3.64566 19.2504 3.72799 19.4035 3.844C19.5213 3.93322 19.7162 4.08657 19.8595 4.17862L20.9401 2.49569ZM19.9659 1.82193L19.2059 1.46404L18.3538 3.27345L19.1138 3.63134L19.9659 1.82193ZM19.2809 1.50332C18.8016 1.22582 18.3153 1.03263 17.8402 0.871979L17.1995 2.76657C17.6085 2.90487 17.9581 3.04852 18.2788 3.23417L19.2809 1.50332ZM18.227 1.11217C18.0994 0.984583 17.9474 0.880787 17.7871 0.80064L16.8926 2.58949C16.8906 2.58847 16.8828 2.58443 16.8704 2.57573C16.8586 2.56745 16.8382 2.55185 16.8127 2.52638L18.227 1.11217ZM17.3399 0.695067H17.2219V2.69507H17.3399V0.695067ZM17.5589 0.753582C16.2785 0.295184 14.9555 0.0441359 13.5916 0.000839651L13.5282 1.99983C14.6843 2.03654 15.8013 2.24864 16.8848 2.63655L17.5589 0.753582ZM13.5599 0.00033617H13.3399V2.00034H13.5599V0.00033617ZM13.3399 0.00033617C12.7318 0.00033617 12.123 0.0438057 11.5081 0.138241L11.8117 2.11506C12.3209 2.03687 12.828 2.00034 13.3399 2.00034V0.00033617ZM11.6599 0.126651H11.4199V2.12665H11.6599V0.126651ZM11.2843 0.135884C10.6139 0.227634 9.94696 0.392093 9.30075 0.626655L9.98314 2.50664C10.4969 2.32015 11.026 2.18988 11.5555 2.11742L11.2843 0.135884ZM9.31624 0.621174C1.17762 3.42479 -1.53558 12.6283 0.823058 20.4062L2.73699 19.8258C0.575673 12.6985 3.18242 4.84951 9.96764 2.51212L9.31624 0.621174ZM0.83213 20.4345C2.15703 24.3766 4.29295 27.9576 7.07466 30.9054L8.52926 29.5327C5.95103 26.8006 3.963 23.4722 2.72792 19.7974L0.83213 20.4345ZM7.08948 30.9207C11.0368 34.9287 15.3541 38.4691 19.9931 41.4983L21.0866 39.8238C16.5696 36.8741 12.3631 33.4251 8.51444 29.5173L7.08948 30.9207ZM19.9938 41.4988L20.5138 41.8377L21.6059 40.1623L21.0859 39.8233L19.9938 41.4988ZM21.5964 41.8439L22.0963 41.526L21.0233 39.8382L20.5233 40.1561L21.5964 41.8439ZM22.1106 41.5167C26.732 38.467 31.0245 34.9272 34.9355 30.9404L33.5078 29.5398C29.6949 33.4266 25.5115 36.8762 21.009 39.8475L22.1106 41.5167ZM34.9467 30.9288C37.7496 27.9784 39.8843 24.3736 41.189 20.4301L39.2902 19.8019C38.0749 23.4752 36.0898 26.8218 33.4967 29.5513L34.9467 30.9288ZM41.1979 20.4017C43.5144 12.6322 40.8078 3.42455 32.7435 0.664729L32.0959 2.55699C38.7954 4.84975 41.4088 12.6946 39.2813 19.8302L41.1979 20.4017Z" fill="#979797"/>
</svg>
